<?xml version="1.0" standalone="no"?>
<!DOCTYPE svg PUBLIC "-//W3C//DTD SVG 20010904//EN"
 "http://www.w3.org/TR/2001/REC-SVG-20010904/DTD/svg10.dtd">
<svg version="1.0" xmlns="http://www.w3.org/2000/svg"
 width="964.000000pt" height="184.000000pt" viewBox="0 0 964.000000 184.000000"
 preserveAspectRatio="xMidYMid meet">

<g transform="translate(0.000000,184.000000) scale(0.100000,-0.100000)"
fill="#000000" stroke="none">
<path d="M682 1490 c-27 -17 -83 -89 -94 -122 -2 -6 -23 -4 -51 6 -88 30 -164
17 -186 -31 -15 -33 -14 -93 4 -143 20 -57 21 -54 -24 -75 -22 -9 -54 -33 -73
-52 -27 -28 -33 -42 -33 -78 0 -51 30 -89 101 -127 24 -12 44 -26 44 -29 0 -4
-7 -26 -15 -49 -39 -110 -2 -190 87 -190 25 0 66 7 93 17 31 10 50 12 52 6 12
-34 67 -106 95 -123 73 -44 127 -14 203 115 10 16 14 16 58 1 26 -9 68 -16 93
-16 82 0 118 67 91 165 -8 28 -17 57 -21 65 -5 11 7 22 45 39 67 32 99 75 99
131 0 37 -5 48 -40 81 -21 20 -55 43 -75 50 -26 10 -34 17 -29 29 20 46 34
119 28 152 -11 73 -92 99 -194 63 -23 -8 -44 -15 -45 -15 -2 0 -17 25 -34 55
-50 89 -113 115 -179 75z m92 -51 c15 -11 36 -39 47 -62 l21 -40 -23 -18 c-13
-10 -38 -26 -54 -35 -29 -16 -32 -15 -77 12 -26 16 -48 35 -48 42 0 23 28 69
60 96 38 31 40 32 74 5z m-233 -91 l36 -16 -17 -66 c-9 -36 -19 -68 -22 -71
-6 -6 -114 -34 -134 -35 -12 0 -44 95 -44 134 0 16 11 38 26 53 22 22 32 25
72 21 26 -3 63 -12 83 -20z m532 11 c12 -7 25 -17 29 -23 19 -29 -2 -163 -27
-172 -10 -4 -134 21 -140 28 -4 6 -36 141 -33 143 2 2 23 10 48 18 54 19 94
21 123 6z m-398 -81 c19 -13 35 -26 35 -30 0 -15 -55 -48 -81 -48 -16 0 -29 3
-29 6 0 21 24 94 31 94 5 0 25 -10 44 -22z m191 -31 l12 -47 -30 0 c-17 0 -42
10 -59 25 l-29 24 37 26 c21 14 42 24 47 22 6 -2 15 -24 22 -50z m-108 -35 c2
-7 -7 -12 -23 -12 -24 0 -26 2 -15 15 14 17 31 16 38 -3z m105 -90 c26 -27 27
-33 27 -128 0 -97 -1 -101 -28 -127 -26 -25 -34 -27 -122 -27 -92 0 -95 1
-127 32 -33 31 -33 33 -33 122 0 88 1 91 32 123 32 33 32 33 128 33 92 0 97
-1 123 -28z m-333 -29 c-5 -20 -17 -45 -28 -56 -20 -19 -20 -19 -46 19 -14 21
-26 42 -26 46 0 9 55 26 86 27 20 1 21 -2 14 -36z m482 24 l38 -12 -27 -44
-26 -44 -29 31 c-32 37 -38 82 -10 81 9 0 34 -6 54 -12z m-574 -78 l29 -44
-31 -47 c-17 -26 -38 -48 -46 -48 -24 0 -97 50 -108 74 -5 12 -6 31 -1 43 9
25 109 87 121 75 5 -5 21 -28 36 -53z m735 3 c39 -37 33 -68 -21 -109 -24 -18
-52 -33 -62 -33 -11 0 -31 20 -49 49 l-31 48 32 51 33 50 35 -14 c19 -8 48
-27 63 -42z m-643 -48 c0 -22 -2 -25 -15 -14 -12 10 -13 16 -4 26 16 20 19 18
19 -12z m440 1 c0 -8 -4 -17 -10 -20 -6 -4 -10 5 -10 20 0 15 4 24 10 20 6 -3
10 -12 10 -20z m-436 -102 c3 -20 1 -33 -5 -33 -21 0 -99 23 -99 29 0 3 12 24
26 45 l26 38 23 -23 c12 -13 25 -39 29 -56z m490 37 c14 -22 26 -41 26 -44 0
-4 -83 -26 -99 -26 -19 0 -12 51 12 80 12 16 25 29 28 29 4 1 18 -17 33 -39z
m-564 -109 c19 -5 47 -12 63 -15 20 -5 27 -12 27 -30 0 -12 6 -44 14 -70 l15
-48 -35 -14 c-136 -57 -210 0 -169 130 19 60 24 63 85 47z m636 -31 c7 -19 13
-56 13 -82 1 -39 -3 -50 -25 -67 -15 -12 -37 -21 -49 -21 -28 0 -123 28 -129
38 -4 7 22 131 30 140 5 7 110 30 128 29 12 -1 24 -15 32 -37z m-406 -26 c21
-21 22 -27 10 -35 -21 -14 -68 -39 -73 -39 -4 0 -27 81 -27 94 0 3 15 6 33 6
23 0 41 -8 57 -26z m70 17 c0 -19 -22 -23 -38 -7 -15 15 -14 16 11 16 15 0 27
-4 27 -9z m108 -33 c-15 -62 -22 -65 -69 -34 l-42 28 29 24 c16 13 43 23 60
24 l32 0 -10 -42z m-70 -61 c23 -16 42 -32 42 -36 0 -4 -13 -28 -30 -54 -32
-51 -64 -70 -93 -55 -23 12 -77 87 -77 107 0 18 90 80 105 72 6 -3 29 -18 53
-34z"/>
<path d="M690 1040 c-26 -26 -25 -51 1 -84 38 -48 109 -23 109 38 0 60 -68 88
-110 46z m74 -16 c9 -8 16 -22 16 -29 0 -13 -26 -45 -36 -45 -39 0 -59 60 -26
79 23 14 28 14 46 -5z"/>
<path d="M6645 1410 c-49 -5 -50 -6 -53 -41 l-3 -35 83 9 83 9 46 -53 c46 -51
46 -53 53 -140 6 -77 4 -95 -15 -138 -19 -46 -24 -50 -70 -61 -28 -7 -51 -11
-53 -9 -1 2 -9 36 -18 75 -15 64 -15 75 -1 135 19 77 21 79 39 55 8 -12 14
-44 14 -81 0 -35 6 -69 13 -79 12 -16 15 -14 31 23 15 31 18 55 13 102 -7 84
-21 95 -124 102 l-83 6 0 -298 c0 -164 -3 -380 -7 -479 l-6 -182 61 0 62 0 0
235 c0 217 -1 235 -17 236 -18 0 99 62 136 72 34 8 87 130 99 225 l10 84 -40
96 c-22 53 -43 100 -47 104 -12 13 -157 33 -206 28z"/>
<path d="M7521 1386 c-41 -19 -77 -40 -81 -47 -4 -8 -17 -52 -29 -98 -19 -77
-21 -112 -21 -390 l0 -306 58 -105 58 -105 69 3 c124 4 122 3 170 128 41 110
42 113 49 283 4 102 2 242 -4 344 l-12 172 -39 40 -39 40 -70 -70 -70 -70 -21
-147 -21 -148 32 -201 c32 -194 34 -200 51 -182 30 30 72 243 64 328 -8 92
-13 105 -36 105 -23 0 -23 1 -3 -72 9 -32 14 -61 12 -64 -3 -3 -21 -7 -41 -11
l-35 -5 -11 52 c-10 47 -8 61 20 158 17 59 34 110 38 114 4 4 29 9 55 10 l49
3 23 -105 c22 -102 22 -109 9 -245 -17 -166 -60 -324 -96 -355 -47 -40 -52
-40 -97 -2 -40 34 -45 45 -71 142 -25 93 -29 129 -34 316 l-7 211 44 99 c43
97 45 100 117 149 67 46 71 50 48 56 -40 11 -51 9 -128 -25z"/>
<path d="M3664 1402 l-41 -3 -6 -82 c-4 -45 -7 -177 -7 -294 0 -116 -4 -214
-8 -217 -8 -5 -65 223 -124 487 l-21 97 -79 0 c-63 0 -78 -3 -78 -15 0 -12 14
-15 63 -16 l62 -1 -60 -12 -60 -11 0 -152 c0 -84 1 -310 3 -503 l2 -350 55 0
55 0 2 408 3 407 32 -150 c17 -82 55 -266 84 -407 l52 -258 43 0 42 0 6 118
c9 178 29 952 25 955 -2 1 -22 1 -45 -1z"/>
<path d="M3840 1401 l-55 -6 -3 -52 -3 -53 72 0 c53 0 75 4 83 15 8 11 10
-115 8 -480 l-4 -495 61 0 61 0 0 68 0 68 -37 11 -38 10 38 2 37 1 0 395 0
395 65 0 65 0 0 65 0 65 -147 -2 c-82 -1 -173 -4 -203 -7z"/>
<path d="M6167 1158 l85 -253 -77 -255 -77 -254 29 -24 28 -23 -27 10 c-23 9
-29 7 -38 -9 -10 -19 -7 -20 39 -20 l50 0 30 98 c16 53 42 138 57 187 15 50
29 83 32 75 3 -8 26 -91 52 -185 l46 -170 42 -3 c23 -2 42 1 42 7 0 5 -29 135
-65 289 l-65 280 85 248 c47 137 85 250 85 252 0 2 -21 2 -47 0 l-47 -3 -59
-150 c-50 -129 -57 -156 -52 -195 7 -58 -10 -32 -20 30 -4 25 -27 107 -52 183
l-44 137 -59 0 -59 0 86 -252z"/>
<path d="M2290 1148 c1 -341 17 -503 66 -651 35 -108 40 -115 79 -141 33 -20
54 -26 101 -26 l59 0 51 83 c47 74 53 92 67 182 19 123 28 397 20 630 l-6 175
-49 0 -48 0 0 -150 0 -150 33 -1 32 -1 -32 -9 -33 -10 0 -241 c0 -278 -10
-336 -65 -369 -29 -18 -30 -18 -57 8 l-28 27 -1 -25 c0 -13 -18 37 -39 111
-33 114 -39 150 -40 231 0 53 -3 204 -7 337 l-6 242 -49 0 -48 0 0 -252z"/>
<path d="M2947 1092 c-37 -169 -67 -310 -67 -314 0 -5 17 -8 38 -8 l38 0 39
208 c21 114 41 210 45 215 6 7 60 -382 60 -430 0 -23 -2 -23 -119 -23 -105 0
-120 -2 -125 -17 -3 -10 -19 -76 -36 -148 -17 -72 -33 -138 -36 -147 -4 -14 3
-17 38 -20 l43 -3 -44 -10 c-36 -8 -46 -15 -52 -38 l-7 -27 72 0 73 0 7 92 c3
50 6 125 6 166 l0 75 80 -5 c68 -4 80 -2 81 11 2 44 19 -37 34 -159 23 -191
19 -180 72 -180 l45 0 -5 33 c-4 17 -34 258 -68 535 l-63 502 -40 0 -41 0 -68
-308z"/>
<path d="M4280 1143 c0 -362 12 -488 61 -638 36 -110 43 -122 78 -147 33 -24
49 -28 103 -28 l63 1 49 81 c73 120 77 152 83 606 l5 382 -51 0 -51 0 0 -150
0 -150 33 -1 32 -1 -32 -9 -33 -10 0 -237 c0 -216 -2 -244 -21 -300 -16 -47
-28 -66 -49 -77 -25 -13 -29 -12 -45 5 -24 26 -35 25 -36 -2 0 -13 -18 40 -40
117 l-39 140 -7 338 -6 337 -49 0 -48 0 0 -257z"/>
<path d="M4840 1242 c0 -87 -3 -328 -7 -535 l-6 -377 55 0 56 0 7 228 c4 150
3 257 -5 316 -6 49 -9 90 -7 93 3 2 12 -31 22 -74 22 -104 72 -304 77 -307 1
-2 20 -1 40 1 l37 5 58 168 c32 93 61 166 65 163 5 -2 8 -137 8 -299 l0 -294
43 0 42 0 -2 82 c-9 303 -23 864 -23 921 l0 67 -50 0 c-27 0 -50 -1 -50 -2 0
-16 -141 -672 -145 -676 -3 -3 -5 18 -5 47 0 40 -57 317 -125 609 -4 18 -12
22 -45 22 l-40 0 0 -158z"/>
<path d="M5664 1308 c18 -284 27 -615 21 -785 l-7 -193 151 0 151 0 0 51 0 51
-95 -7 -95 -7 1 108 c2 112 14 343 17 312 2 -15 12 -18 62 -18 l60 0 0 34 c0
19 -4 46 -10 60 -9 24 -14 26 -78 26 -38 0 -71 2 -73 5 -3 2 0 53 7 112 28
254 27 233 4 233 -11 0 -20 4 -20 10 0 5 38 7 99 3 l99 -6 3 52 4 51 -153 0
-154 0 6 -92z"/>
<path d="M7012 868 l-2 -538 170 0 170 0 0 55 0 55 -67 1 c-120 2 -211 13
-185 22 21 8 22 13 22 126 0 65 3 274 7 464 l6 347 -40 0 c-49 0 -53 -7 -53
-99 0 -37 -3 -117 -7 -177 l-8 -109 -5 195 c-4 122 -6 -7 -8 -342z"/>
<path d="M7907 1198 c3 -112 6 -204 7 -205 1 -1 40 8 88 20 80 19 88 23 98 50
5 17 10 56 10 88 0 54 -1 58 -30 68 -30 10 -30 9 -30 -25 0 -27 4 -34 20 -34
17 0 19 -5 13 -32 -8 -45 -13 -48 -57 -41 l-39 6 6 84 c3 46 9 88 12 93 3 6
32 10 64 10 l57 0 21 -44 c19 -38 21 -54 15 -114 -7 -58 -15 -79 -47 -126
l-38 -56 -75 0 -75 0 6 -167 c4 -91 7 -228 7 -305 l0 -138 46 0 46 0 -2 188
c-2 103 -2 192 -1 197 1 6 34 -78 74 -185 l73 -195 62 -3 c34 -2 62 0 62 3 0
3 -50 114 -111 248 -61 133 -113 247 -116 254 -3 7 15 22 42 35 87 43 135 182
114 330 -10 68 -16 83 -49 121 -46 52 -115 77 -213 77 l-66 0 6 -202z"/>
<path d="M8384 1283 c3 -65 9 -306 13 -535 l6 -418 143 0 144 0 0 51 0 50 -91
-3 -91 -3 1 186 c1 103 6 200 11 215 4 16 9 21 9 12 1 -15 11 -18 56 -18 l55
0 0 54 c0 63 -4 66 -90 66 -32 0 -61 4 -65 9 -3 5 1 67 10 138 19 166 19 203
0 203 -8 0 -15 4 -15 10 0 6 33 7 91 3 103 -7 109 -4 109 60 l0 37 -151 0
-152 0 7 -117z"/>
<path d="M8787 1198 c3 -112 6 -204 7 -205 1 -1 41 8 89 20 85 21 87 22 97 57
5 19 10 58 10 87 0 48 -2 52 -30 62 -30 10 -30 9 -30 -25 0 -26 4 -34 18 -34
16 0 18 -6 13 -37 -5 -28 -11 -38 -24 -37 -9 0 -29 1 -43 2 l-27 2 5 84 c3 46
9 89 12 95 4 6 33 11 65 11 l57 0 22 -45 c19 -40 21 -52 13 -115 -8 -57 -17
-82 -47 -125 l-37 -55 -75 0 -75 0 6 -182 c4 -99 7 -237 7 -305 l0 -123 46 0
46 0 -4 200 c-2 109 -2 197 1 194 3 -2 37 -91 76 -197 l71 -192 62 -3 c34 -2
62 -1 62 2 0 3 -52 119 -115 257 -63 138 -113 255 -110 258 2 4 23 16 45 26
81 37 130 187 109 331 -10 63 -16 77 -53 117 -50 55 -110 77 -207 77 l-68 0 6
-202z"/>
<path d="M1976 1378 c-67 -196 -96 -511 -60 -651 l15 -62 44 3 c43 4 45 6 81
70 34 64 36 69 28 132 l-7 65 -24 -99 c-13 -55 -25 -101 -27 -104 -2 -2 -23 9
-45 24 l-41 27 0 112 c0 62 7 150 15 196 26 141 20 131 68 127 l42 -3 32 -85
c30 -79 32 -94 33 -210 0 -119 -2 -130 -36 -226 -35 -100 -36 -101 -91 -132
-30 -18 -59 -30 -63 -27 -5 3 -24 34 -44 69 l-36 64 0 143 c0 78 10 237 21
351 12 115 19 212 16 215 -22 21 -35 -18 -65 -193 -29 -169 -32 -210 -32 -389
l0 -200 43 -110 43 -110 69 -24 70 -24 47 33 47 33 26 -32 c17 -19 36 -31 51
-31 22 0 24 4 24 46 0 25 -5 64 -11 88 -9 37 -16 45 -45 54 -31 9 -36 8 -50
-13 -10 -16 -14 -34 -9 -53 5 -26 3 -29 -33 -40 -57 -17 -62 -16 -62 22 0 30
6 38 38 56 26 15 51 44 81 93 41 68 43 77 58 206 15 132 15 138 -7 265 -15 87
-35 158 -58 213 -33 77 -37 82 -81 100 -25 10 -49 19 -53 21 -5 2 -10 -2 -12
-10z"/>
<path d="M2007 1053 c-22 -35 -25 -48 -20 -97 5 -52 23 -70 23 -24 0 18 4 19
35 14 34 -7 35 -6 35 26 -1 18 -11 53 -24 77 l-23 45 -26 -41z"/>
</g>
</svg>
